<svg width="700" height="700" viewBox="0 0 700 700" fill="none" xmlns="http://www.w3.org/2000/svg">
<path opacity="0.18" d="M295.442 625.562C396.564 634.004 499.156 603.148 583.688 547.008C622.706 521.108 659.316 488.502 678.132 445.606C696.948 402.71 694.26 347.942 661.892 314.062C637.672 288.708 600.88 278.012 577.696 251.622C559.454 230.832 552.104 202.916 539.812 178.108C494.942 87.668 294.742 51.002 213.304 145.138C134.932 235.816 -46.8159 282.492 26.7681 475.706C62.1601 568.596 204.582 617.974 295.442 625.562Z" fill="#6FADFF"/>
<path opacity="0.48" d="M510.44 129.752H161.112C151.138 129.752 143.052 137.838 143.052 147.812V342.034C143.052 352.008 151.138 360.094 161.112 360.094H510.44C520.414 360.094 528.5 352.008 528.5 342.034V147.812C528.5 137.838 520.414 129.752 510.44 129.752Z" fill="#6FADFF"/>
<path d="M461.818 261.828C449.764 285.208 421.036 294.406 397.656 282.352C374.276 270.298 365.078 241.57 377.132 218.19C385.294 202.342 401.632 192.374 419.468 192.374H419.79V239.988L461.804 261.828H461.818Z" fill="url(#paint0_linear_46_470)"/>
<path d="M467.096 240.058C467.096 247.66 465.29 255.136 461.804 261.898L419.79 240.058V192.444C445.97 192.612 467.096 213.878 467.096 240.058Z" fill="url(#paint1_linear_46_470)"/>
<path d="M223.972 215.754H213.304V283.71H223.972V215.754Z" fill="url(#paint2_linear_46_470)"/>
<path d="M240.912 235.83H230.244V283.682H240.912V235.83Z" fill="url(#paint3_linear_46_470)"/>
<path d="M257.838 215.754H247.17V283.71H257.838V215.754Z" fill="url(#paint4_linear_46_470)"/>
<path d="M274.778 203.014H264.11V283.71H274.778V203.014Z" fill="url(#paint5_linear_46_470)"/>
<path d="M565.852 400.806H557.326V555.912H565.852V400.806Z" fill="#6FADFF"/>
<path d="M565.852 400.806H557.326V555.912H565.852V400.806Z" fill="url(#paint6_linear_46_470)"/>
<path d="M626.472 389.564H268.94V401.198H626.472V389.564Z" fill="#6FADFF"/>
<path d="M626.472 389.564H268.94V401.198H626.472V389.564Z" fill="url(#paint7_linear_46_470)"/>
<path d="M297.262 400.806H288.736V555.912H297.262V400.806Z" fill="#6FADFF"/>
<path d="M364.924 401.226H356.398V557.27H364.924V401.226Z" fill="#6FADFF"/>
<path d="M297.262 400.806H288.736V555.912H297.262V400.806Z" fill="url(#paint8_linear_46_470)"/>
<path d="M364.924 401.226H356.398V557.27H364.924V401.226Z" fill="url(#paint9_linear_46_470)"/>
<path d="M622.748 401.212H614.222V557.27H622.748V401.212Z" fill="#6FADFF"/>
<path d="M622.748 401.212H614.222V557.27H622.748V401.212Z" fill="url(#paint10_linear_46_470)"/>
<path d="M633.08 459.368L653.604 540.806C654.066 542.584 655.844 543.704 657.65 543.34C659.442 542.976 660.632 541.296 660.394 539.49C658.252 523.726 648.97 455.224 648.508 454.328C648.046 453.432 640.696 454.482 635.964 455.084C634.074 455.35 632.744 457.086 633.01 458.99C633.024 459.116 633.052 459.242 633.08 459.368Z" fill="#6FADFF"/>
<path d="M609.924 459.368L589.4 540.806C588.938 542.584 587.16 543.704 585.354 543.34C583.562 542.976 582.372 541.296 582.61 539.49C584.752 523.726 594.034 455.224 594.496 454.328C594.958 453.432 602.308 454.482 607.04 455.084C608.93 455.35 610.26 457.086 609.994 458.99C609.98 459.116 609.952 459.242 609.924 459.368Z" fill="#6FADFF"/>
<path d="M633.08 459.368L653.604 540.806C654.066 542.584 655.844 543.704 657.65 543.34C659.442 542.976 660.632 541.296 660.394 539.49C658.252 523.726 648.97 455.224 648.508 454.328C648.046 453.432 640.696 454.482 635.964 455.084C634.074 455.35 632.744 457.086 633.01 458.99C633.024 459.116 633.052 459.242 633.08 459.368Z" fill="url(#paint11_linear_46_470)"/>
<path d="M609.924 459.368L589.4 540.806C588.938 542.584 587.16 543.704 585.354 543.34C583.562 542.976 582.372 541.296 582.61 539.49C584.752 523.726 594.034 455.224 594.496 454.328C594.958 453.432 602.308 454.482 607.04 455.084C608.93 455.35 610.26 457.086 609.994 458.99C609.98 459.116 609.952 459.242 609.924 459.368Z" fill="url(#paint12_linear_46_470)"/>
<path d="M680.05 363.23C679.308 366.87 677.32 370.104 675.878 373.52C666.33 396.298 681.744 425.964 666.96 445.732C661.122 453.53 651.532 457.828 641.9 459.298C632.282 460.768 622.44 459.746 612.752 458.71L598.654 457.226C594.3 456.764 589.862 456.274 585.942 454.328C582.022 452.382 578.704 448.644 578.522 444.276C578.284 438.886 582.624 434.518 586.502 430.766C602.182 415.59 615.804 398.426 627.018 379.708C633.192 369.306 640.71 355.474 653.492 352.59C662.34 350.574 682.906 349.272 680.05 363.258V363.23Z" fill="#6FADFF"/>
<path d="M674.282 359.002C673.54 362.642 671.552 365.876 670.11 369.306C660.562 392.07 675.976 421.75 661.192 441.504C655.354 449.302 645.764 453.6 636.132 455.084C626.5 456.568 616.672 455.518 606.984 454.482L592.886 452.998C588.532 452.522 584.094 452.032 580.174 450.03C576.254 448.028 572.936 444.36 572.754 439.992C572.516 434.588 576.856 430.22 580.734 426.454C596.414 411.278 610.036 394.114 621.25 375.396C627.424 365.078 634.942 351.162 647.724 348.292C656.572 346.332 677.138 345.03 674.282 359.016V359.002Z" fill="url(#paint13_linear_46_470)"/>
<path d="M507.318 506.072C505.722 509.054 504.784 512.344 504.588 515.718C504.588 522.13 509.754 527.226 514.5 531.552C518.14 521.948 523.418 512.708 531.174 506.002C536.396 501.55 574.728 454.286 580.188 450.072C585.648 445.858 624.022 444.038 624.876 437.22C625.842 429.52 592.984 430.556 586.95 425.432C579.376 418.992 543.41 429.044 538.79 435.176C528.094 449.358 514.5 489.972 507.304 506.086L507.318 506.072Z" fill="#231F20"/>
<path d="M507.514 506.184C505.918 509.166 504.98 512.456 504.77 515.83C504.84 522.242 509.95 527.338 514.696 531.678C518.336 522.074 523.614 512.834 531.37 506.128C536.578 501.676 574.924 454.412 580.384 450.198C585.844 445.984 624.218 444.164 625.072 437.332C626.038 429.632 593.18 430.682 587.146 425.558C579.572 419.118 543.606 429.156 538.986 435.288C528.276 449.47 514.738 490.084 507.5 506.198L507.514 506.184Z" fill="url(#paint14_linear_46_470)"/>
<path d="M599.956 338.926C599.62 333.368 601.076 327.866 604.1 323.19C607.138 318.556 611.212 314.678 615.986 311.864C618.702 310.212 621.81 308.798 624.904 309.204C627.564 309.54 631.274 305.564 633.43 307.16C639.492 311.612 643.832 322.266 648.9 327.796C650.244 335.23 651.084 342.748 651.392 350.294L654.458 407.302C654.962 416.71 655.228 427 649.558 434.532C635.348 429.366 621.516 423.206 608.174 416.094C606.9 415.534 605.766 414.68 604.856 413.616C603.932 412.034 603.498 410.228 603.596 408.408C603.036 394.212 603.036 380.03 603.596 365.834C603.862 358.176 600.572 346.584 599.956 338.94V338.926Z" fill="#6FADFF"/>
<path d="M626.234 395.136C626.724 392.168 627.718 389.2 627.158 386.218C626.206 380.898 620.648 376.67 621.516 371.364C621.852 369.18 623.266 367.318 624.176 365.302C625.786 361.718 625.786 357.658 625.66 353.738C625.52 348.362 625.254 342.972 624.862 337.61C622.342 339.486 620.284 341.894 618.828 344.68L607.642 362.712C606.382 364.574 605.332 366.562 604.492 368.648C603.498 371.98 603.05 375.452 603.176 378.924L602.672 404.838C602.672 407.316 602.672 410.032 604.296 411.908C605.444 413.056 606.872 413.868 608.44 414.288C613.662 416.052 623.406 419.3 626.416 413.462C629.034 408.408 625.24 401.128 626.248 395.136H626.234Z" fill="url(#paint15_linear_46_470)"/>
<path d="M610.918 407.162L570.066 412.286C563.164 413.168 556.136 414.05 549.724 416.738C543.312 419.426 537.46 424.256 535.08 430.808C529.466 446.278 530.74 462.504 535.85 478.142C540.022 490.854 544.18 503.566 548.338 516.278C549.304 519.96 550.928 523.446 553.126 526.568C555.506 529.536 559.286 531.692 563.052 531.02C564.466 530.838 565.74 530.054 566.538 528.878C567.07 527.744 567.308 526.484 567.196 525.238L567.28 456.47C567.28 452.522 567.63 447.902 570.934 445.732C573.076 444.332 575.806 444.444 578.354 444.584L623.77 447.244C630.308 447.636 652.372 439.194 651.028 429.968C649.236 417.76 623.168 405.594 610.904 407.134L610.918 407.162Z" fill="#231F20"/>
<path d="M557.368 527.212C556.29 529.298 556.878 531.916 555.968 534.1C555.156 535.682 553.966 537.04 552.496 538.034L541.884 546.63C540.022 548.114 537.95 550.298 538.692 552.566C539.434 554.834 542.206 555.352 544.53 555.464C550.452 555.646 556.388 555.408 562.282 554.736C565.978 554.386 570.024 553.798 572.502 551.04C573.748 549.528 574.546 547.708 574.826 545.762C575.96 539.042 572.74 532.392 569.632 526.456C569.422 525.882 568.988 525.406 568.428 525.154C567.994 525.084 567.546 525.126 567.154 525.308C564.718 526.12 562.408 527.24 560.266 528.668" fill="#231F20"/>
<path d="M473.802 530.418C473.074 530.978 472.458 531.664 472.01 532.462C471.058 534.856 471.814 537.6 473.858 539.182C475.888 540.666 478.268 541.604 480.76 541.898C486.71 543.032 492.772 543.41 498.82 543.046C501.886 543.41 504.854 541.814 506.24 539.056C508.998 534.758 511.476 530.292 513.66 525.686C515.34 522.102 511.952 520.254 508.802 519.512C505.974 518.84 503.692 520.156 501.186 521.276C495.432 523.88 489.23 524.412 483.196 526.008C479.78 526.792 476.574 528.29 473.788 530.418H473.802Z" fill="#231F20"/>
<path d="M591.458 295.988C593.824 298.956 594.79 302.96 597.002 306.096C598.136 308.056 600.152 309.316 602.406 309.484C605.15 309.386 607.068 306.796 609.476 305.452C610.526 307.118 612.36 308.126 614.334 308.126C616.28 308.112 618.184 307.65 619.92 306.768C622.93 305.424 625.716 303.604 628.166 301.406C628.502 301.154 628.768 300.804 628.936 300.412C629.048 299.992 629.048 299.544 628.936 299.124L623.91 275.8C623.434 272.482 622.23 269.304 620.396 266.504C618.912 264.712 617.022 263.298 614.866 262.374C607.32 258.902 597.73 260.386 592.592 267.19C589.022 271.866 591.822 277.592 591.108 282.884C590.758 285.306 589.736 287.518 589.288 289.884C588.588 292.6 589.932 294 591.472 295.974L591.458 295.988Z" fill="#FFB4A3"/>
<path d="M590.184 264.992C592.83 267.96 597.296 268.436 601.314 268.408C603.358 268.268 605.416 268.408 607.418 268.828C609.448 269.276 611.156 270.648 612.024 272.524C612.696 274.246 612.304 276.192 612.5 278.026C612.528 278.838 612.85 279.622 613.41 280.224C613.998 280.812 614.95 280.854 615.58 280.294C616.28 279.524 616.252 277.788 617.26 277.956C617.596 278.054 617.876 278.278 618.016 278.6C619.262 280.658 619.22 283.248 617.904 285.25C617.064 286.496 615.706 288.078 616.672 289.212C617.232 289.87 618.156 289.856 619.024 290.15C621.684 291.172 621.67 295.456 624.246 296.702C625.478 297.206 626.864 297.066 627.97 296.324C629.048 295.582 629.986 294.644 630.7 293.566C635.88 286.608 639.044 278.362 639.856 269.724C640.248 267.092 639.982 264.418 639.1 261.912C637.966 259.49 636.23 257.39 634.06 255.822C630.938 253.316 626.71 251.216 623.042 252.854C621.894 253.358 620.69 254.226 619.528 253.792C618.996 253.54 618.534 253.176 618.156 252.742C612.976 247.59 604.492 246.68 597.688 249.382C595.14 250.404 590.1 251.468 588.77 254.072C587.272 257.712 587.818 261.856 590.198 264.992H590.184Z" fill="#C14834"/>
<path d="M606.844 369.768L590.786 384.048C587.174 387.268 582.946 390.698 578.116 390.25C574.756 389.76 571.788 387.842 569.968 384.972C568.19 382.13 566.916 378.994 566.23 375.718C562.926 362.67 562.184 349.104 564.032 335.762C564.06 335.202 564.242 334.656 564.564 334.194C565.222 333.62 566.09 333.354 566.958 333.438L574.518 333.214C576.464 332.71 578.452 333.872 578.956 335.818C578.956 335.832 578.956 335.86 578.97 335.874L586.054 351.988C591.388 346.402 599.816 327.852 605.136 322.28C606.452 320.88 619.164 309.4 625.31 334.95C627.438 343.868 613.76 363.622 606.844 369.768Z" fill="#6FADFF"/>
<path d="M565.782 321.86C565.852 320.516 566.174 319.186 566.762 317.968C567.504 316.736 568.526 315.686 569.73 314.888C572.012 313.236 574.504 311.92 577.15 310.968C578.088 310.548 579.11 310.38 580.118 310.478C581.154 310.674 582.092 311.192 582.806 311.962C585.578 314.776 586.418 318.962 584.948 322.63C583.282 326.55 579.166 329.168 578.06 333.284C577.584 335.048 577.668 337.106 576.506 338.506C575.26 339.696 573.608 340.34 571.886 340.312C567.644 340.718 566.51 339.416 566.188 335.692C565.614 331.1 565.474 326.466 565.782 321.846V321.86Z" fill="#FFB4A3"/>
<path d="M610.624 315.784V310.142C610.624 309.778 610.694 309.428 610.862 309.106C611.1 308.812 611.408 308.602 611.772 308.476C614.376 307.398 617.204 306.88 619.752 305.662C622.958 304.178 625.856 301.448 629.412 301.49C629.776 301.448 630.126 301.56 630.406 301.784C630.602 301.994 630.728 302.246 630.784 302.512C631.218 303.912 631.582 305.326 631.904 306.754C631.988 306.964 631.988 307.202 631.904 307.426C631.764 307.622 631.568 307.762 631.344 307.818L627.676 309.19C621.81 311.346 615.776 312.228 610.652 315.784H610.624Z" fill="#6FADFF"/>
<path d="M57.9178 548.828C57.3438 549.948 56.6298 550.97 56.0278 552.076C54.4178 555.114 53.8438 558.586 54.3898 561.988C54.6978 564.9 56.3778 567.504 58.9258 568.974C60.7738 569.702 62.8038 569.912 64.7638 569.548C67.8858 569.198 71.2038 568.148 72.8978 565.516C73.8638 563.682 74.3678 561.652 74.3818 559.58C74.6198 556.612 74.8018 553.462 73.4998 550.662C72.5058 548.548 70.6718 546.868 69.8878 544.726C69.2018 542.836 69.2298 540.54 67.7178 539.224C65.9118 537.67 62.2858 538.622 60.8718 540.386C59.1078 542.626 59.2058 546.294 57.9038 548.828H57.9178Z" fill="#6FADFF"/>
<path d="M96.2079 539.308C95.6059 541.128 94.9899 543.2 95.8579 544.922C96.9639 547.148 99.8199 547.666 101.99 548.87C104.16 550.074 105.546 551.838 107.576 552.874C109.732 553.868 112.084 554.372 114.464 554.358C117.558 554.512 120.652 554.512 123.746 554.358C126.042 554.4 128.31 553.952 130.424 553.07C130.956 552.846 131.418 552.496 131.782 552.048C132.958 550.438 131.628 548.226 130.186 546.896C127.722 544.628 124.782 542.934 121.59 541.968C117.726 540.806 113.162 540.484 110.754 537.25C108.962 534.87 108.78 531.314 106.414 529.55C99.8199 524.566 97.4539 535.584 96.2079 539.308Z" fill="#6FADFF"/>
<path d="M54.7679 516.306L56.2519 534.674C56.6579 539.42 57.7359 545.16 62.1879 546.812C65.7019 548.114 69.7619 545.93 71.8059 542.78C73.8499 539.63 74.3819 535.738 74.7739 532.014C78.7499 496.888 79.1139 461.174 87.2759 426.79C92.6939 458.052 95.8439 489.664 96.6839 521.374C96.5719 524.496 97.0059 527.618 97.9579 530.6C98.9799 533.624 101.514 535.878 104.622 536.536C108.29 537.026 111.776 534.282 113.358 530.922C114.926 527.562 115.024 523.712 115.08 520.002L117.18 385.686C117.264 379.526 117.586 372.792 121.632 368.158C103.124 368.06 83.0199 368.984 64.5259 368.886C63.3499 368.76 62.1599 368.998 61.1239 369.6C60.0739 370.622 59.4579 372.022 59.4159 373.492C52.3599 420.756 50.7919 468.664 54.7539 516.292L54.7679 516.306Z" fill="#231F20"/>
<path d="M54.502 516.306L55.986 534.674C56.378 539.42 57.47 545.16 61.922 546.812C65.464 548.114 69.51 545.93 71.568 542.78C73.612 539.63 74.144 535.738 74.536 532.014C78.512 496.888 78.876 461.174 87.038 426.79C92.456 458.052 95.592 489.664 96.432 521.374C96.334 524.496 96.768 527.618 97.72 530.6C98.728 533.61 101.262 535.878 104.37 536.536C108.052 537.026 111.538 534.282 113.12 530.922C114.702 527.562 114.786 523.712 114.842 520.002L116.928 385.686C117.026 379.526 117.334 372.792 121.38 368.158C102.872 368.06 82.768 368.984 64.274 368.886C63.098 368.746 61.894 368.998 60.872 369.6C59.822 370.622 59.206 372.022 59.164 373.492C52.108 420.756 50.54 468.664 54.502 516.292V516.306Z" fill="url(#paint16_linear_46_470)"/>
<path d="M176.246 317.492C176.274 318.766 175.868 319.998 175.084 320.992C174.244 321.706 173.208 322.168 172.116 322.308C158.256 325.542 143.892 326.116 129.682 326.662C127.414 326.732 124.6 326.55 123.634 324.464V332.066C123.634 340.326 123.452 348.894 123.634 356.86C123.886 360.276 123.564 363.692 122.682 367.01C120.624 373.394 114.562 377.832 108.136 379.778C101.71 381.724 94.864 381.514 88.144 381.262L66.906 380.632C65.058 380.702 63.224 380.408 61.502 379.764C56.714 377.636 55.79 371.364 55.566 366.142C54.908 351.092 55.216 335.496 55.776 319.998C56.182 308.938 56.714 297.92 57.134 287.196C57.33 282.31 60.494 277.914 64.456 275.072C68.572 272.412 73.122 270.494 77.896 269.388C82.656 268.282 87.29 266.644 91.7 264.53C100.17 265.846 108.304 268.842 115.598 273.35C123.256 277.746 129.206 284.578 132.524 292.754C133.798 296.142 134.694 300.02 137.62 302.162C140.546 304.304 144.214 303.954 147.658 303.73C154.728 303.31 161.826 303.338 168.896 303.828C171.192 303.982 173.796 304.332 175.21 306.18C176.036 307.51 176.456 309.064 176.4 310.632C176.498 312.914 176.442 315.196 176.246 317.464V317.492Z" fill="#6FADFF"/>
<path d="M89.1379 333.116C87.6539 332.318 86.17 331.632 84.826 330.778C83.482 329.924 82.306 329.056 81.0879 328.146L73.43 322.35C72.884 321.958 72.394 321.51 71.946 320.992C70.966 319.718 70.532 318.122 70.728 316.54C70.938 314.958 71.4 313.432 72.1 311.99C72.968 309.988 73.976 307.776 73.346 305.662C72.59 303.03 69.65 301.714 66.962 301.21C66.528 301.112 66.066 301.112 65.632 301.21C64.792 301.518 64.148 302.176 63.854 303.016C62.846 305.466 62.272 308.07 62.146 310.716L61.18 319.97C61.026 320.95 61.026 321.958 61.18 322.938C61.81 325.696 64.6099 327.292 66.9899 328.874C70.6579 331.506 74.172 334.32 77.546 337.316C80.934 340.326 84.966 342.51 89.32 343.714C91.14 344.19 93.0579 344.19 94.8779 343.714C96.0679 343.378 97.146 342.706 97.986 341.782C99.3439 340.298 98.42 339.85 97.048 338.716C94.584 336.616 91.952 334.726 89.166 333.088L89.1379 333.116Z" fill="url(#paint17_linear_46_470)"/>
<path d="M108.99 362.824C108.99 362.824 100.716 366.086 94.136 361.676C87.556 357.266 77.602 350.714 77.602 350.714L62.244 344.778V370.524C62.244 370.524 62.636 378.616 66.85 380.716C65.002 380.786 63.168 380.492 61.446 379.848C56.658 377.72 55.734 371.448 55.51 366.226C54.852 351.176 55.16 335.58 55.72 320.082L98.798 353.038L109.004 362.824H108.99Z" fill="url(#paint18_linear_46_470)"/>
<path d="M43.0219 315.434C42.2239 317.198 41.8739 319.116 41.9999 321.048C42.4339 323.064 43.4419 324.912 44.8979 326.368C53.0039 335.72 64.6379 341.124 75.8939 346.248C77.7279 347.242 79.7579 347.858 81.8299 348.04C87.1919 348.04 89.3899 344.666 90.1459 339.36C90.3139 338.534 90.2859 337.68 90.0619 336.868C89.4459 335.664 88.4659 334.67 87.2479 334.054C80.9759 330.008 72.3939 326.97 67.1159 321.678C66.3459 321.02 65.8139 320.124 65.6319 319.13C65.5199 317.898 77.7559 298.004 74.9139 291.186C72.0719 284.368 68.4739 273.896 61.3339 278.068C51.1419 284.102 46.0599 306.894 43.0079 315.42L43.0219 315.434Z" fill="#6FADFF"/>
<path d="M187.46 300.734C187.81 300.51 188.23 300.468 188.622 300.594C188.93 300.818 189.098 301.182 189.098 301.56C189.294 303.072 189.098 304.598 188.538 306.012L196.504 306.726C198.996 306.95 201.922 307.44 203.028 309.694C204.134 311.948 202.426 315.056 200.186 316.596C196.238 319.326 191.156 319.704 186.354 319.788C183.498 319.984 180.628 319.704 177.856 318.99C173.684 317.702 168.756 312.9 172.06 308.588C174.972 304.668 183.26 302.666 187.46 300.72V300.734Z" fill="#FFB4A3"/>
<path d="M103.88 340.55C104.776 340.578 105.672 340.816 106.47 341.236C107.282 341.698 107.66 342.65 107.408 343.532C106.722 345.24 103.446 344.82 103.166 346.654C103.166 347.452 103.544 348.194 104.16 348.698L108.864 353.738C110.082 354.886 111.062 356.286 111.748 357.826C112.392 359.422 112 361.256 110.74 362.446C109.396 363.244 107.786 363.468 106.288 363.034C96.9219 361.368 88.7879 355.628 84.0979 347.368C77.2799 335.118 98.4059 339.99 103.894 340.55H103.88Z" fill="#FFB4A3"/>
<path d="M119.994 233.226C119.602 237.216 119.196 241.234 118.79 245.224C118.776 245.686 118.692 246.134 118.552 246.582C118.37 247.044 118.062 247.45 117.866 247.912C117.572 248.85 117.502 249.83 117.642 250.796C117.936 255.248 117.642 260.218 114.674 263.648C114.156 264.264 113.54 264.81 112.868 265.244C110.908 266.238 108.668 266.546 106.512 266.126C105.924 266.042 105.336 266.042 104.762 266.126C104.37 266.154 104.006 266.322 103.74 266.602C103.46 266.91 103.25 267.288 103.138 267.68C102.844 268.492 102.592 269.318 102.396 270.158C102.27 271.166 101.864 272.118 101.22 272.902C100.506 273.49 99.5819 273.77 98.6719 273.686C98.2519 273.686 97.8179 273.616 97.4119 273.504C95.4239 272.916 93.5899 271.936 91.9799 270.634C89.7819 269.458 88.5079 267.064 88.7879 264.586C88.5639 260.344 88.3259 256.116 88.1019 251.902C87.7799 245.966 87.5139 239.82 89.9079 234.416C93.6879 225.918 103.138 221.48 112.098 224.014C113.33 224.322 114.506 224.826 115.584 225.498C117.04 226.506 118.314 227.766 119.336 229.208C120.414 230.622 120.162 231.476 120.008 233.198L119.994 233.226Z" fill="#FFB4A3"/>
<path d="M114.842 230.216C112.546 230.426 110.236 230.426 107.94 230.216C105.378 230.132 102.844 230.65 100.52 231.7C96.88 233.548 94.458 237.132 94.08 241.192C93.968 242.564 93.814 244.342 92.47 244.664C91.126 244.986 90.356 243.838 89.222 243.712C87.864 243.698 86.702 244.706 86.548 246.064C86.45 247.38 86.8 248.696 87.542 249.788C88.284 250.866 88.956 252 89.53 253.176C90.468 255.696 89.894 258.538 88.046 260.498C85.162 257.082 83.314 252.91 82.698 248.486C82.096 244.076 82.124 239.61 82.782 235.214C82.908 233.66 83.328 232.162 84 230.762C84.392 230.076 84.91 229.46 85.288 228.774C85.918 227.64 86.212 226.352 86.772 225.162C88.27 222.04 90.944 219.646 94.192 218.498C97.426 217.364 100.856 216.916 104.258 217.196C106.414 217.462 108.598 217.378 110.74 216.944C114.324 215.922 122.402 212.142 124.11 218.078C125.748 223.678 119.896 229.362 114.842 230.244V230.216Z" fill="#231F20"/>
<path d="M101.556 243.894C100.716 243.754 99.8899 244.23 99.5959 245.042C99.1899 245.868 98.9939 246.778 99.0359 247.688C99.1059 248.598 99.5959 249.438 100.352 249.942C100.926 250.222 101.556 250.362 102.2 250.348C103.488 250.404 104.762 250.334 106.036 250.124C106.218 250.124 106.386 250.054 106.526 249.942C106.666 249.774 106.736 249.55 106.722 249.34L106.89 246.652C106.96 246.134 106.918 245.602 106.778 245.098C106.078 243.236 103.068 243.796 101.584 243.908L101.556 243.894Z" stroke="white" stroke-width="0.82" stroke-miterlimit="10"/>
<path d="M112.784 243.894C112.224 243.88 111.664 244.062 111.23 244.412C111.062 244.594 110.936 244.804 110.838 245.042C110.432 245.854 110.236 246.764 110.278 247.688C110.32 248.626 110.824 249.466 111.608 249.956C112.182 250.236 112.798 250.362 113.428 250.362C114.716 250.418 116.004 250.348 117.278 250.138C117.446 250.138 117.614 250.068 117.754 249.956C117.894 249.788 117.964 249.564 117.95 249.354L118.118 246.666C118.202 246.148 118.16 245.616 118.006 245.112C117.306 243.236 114.296 243.796 112.798 243.908L112.784 243.894Z" stroke="white" stroke-width="0.82" stroke-miterlimit="10"/>
<path d="M88.8439 242.522C88.5919 242.438 88.3259 242.41 88.0599 242.438C87.0939 242.494 86.1839 242.858 85.4419 243.474C85.1339 243.726 84.8819 244.02 84.6999 244.37C84.4479 244.986 84.3639 245.644 84.4759 246.302C84.5599 247.562 85.0079 248.78 85.7639 249.788C86.2399 250.362 88.8439 252.854 89.5859 252.896C90.3279 252.938 91.8539 251.748 92.3719 251.132C93.0999 250.222 91.4479 246.946 91.3779 245.756C90.9859 244.384 90.0759 243.222 88.8439 242.536V242.522Z" fill="#FFB4A3"/>
<path d="M89.1098 247.338C89.1378 247.156 89.1378 246.974 89.1098 246.792C89.0678 246.624 88.9978 246.456 88.8858 246.316C88.3818 245.672 87.5698 245.35 86.7578 245.504C86.2678 245.574 85.8618 245.896 85.6798 246.344C85.5678 246.764 85.6238 247.212 85.8338 247.604C86.0298 248.122 86.2818 248.626 86.5758 249.088C86.8698 249.55 87.2478 249.942 87.7098 250.236C88.1718 250.53 88.7458 250.6 89.2638 250.432C89.7398 250.25 90.3138 249.592 89.9358 249.102C89.7398 248.864 89.4458 248.794 89.2778 248.5C89.1098 248.15 89.0538 247.744 89.1098 247.352V247.338Z" fill="#FFB4A3"/>
<path d="M104.804 266.07C104.412 266.098 104.048 266.266 103.782 266.546C103.502 266.854 103.292 267.232 103.18 267.624C102.886 268.436 102.634 269.262 102.438 270.102C102.312 271.11 101.906 272.062 101.262 272.846C100.548 273.434 99.6239 273.714 98.7139 273.63C98.2939 273.63 97.8599 273.56 97.4539 273.448C97.0339 272.454 96.8659 271.376 96.9919 270.298C97.0479 269.36 97.1598 268.436 97.3278 267.526C97.3418 267.078 97.5239 266.644 97.8179 266.308C98.2939 265.958 98.8679 265.818 99.4559 265.888H103.698C104.076 265.916 104.44 265.972 104.818 266.056L104.804 266.07Z" fill="url(#paint19_linear_46_470)"/>
<path d="M123.004 332.066L123.704 324.478V332.08H123.004V332.066Z" fill="#6FADFF"/>
<path d="M176.246 317.492C176.274 318.766 175.868 319.998 175.084 320.992C174.244 321.706 173.208 322.168 172.116 322.308C158.256 325.542 143.892 326.116 129.682 326.662C127.414 326.732 124.6 326.55 123.634 324.464V304.374C123.634 304.374 127.554 316.666 134.036 316.26C140.518 315.84 172.844 314.342 172.844 314.342L176.246 317.492Z" fill="url(#paint20_linear_46_470)"/>
<path d="M238.756 495.908C241.276 487.788 245.196 479.892 251.37 474.026C257.53 468.16 266.224 464.548 274.596 465.78C277.634 466.228 280.84 467.474 282.366 470.148C283.794 473.116 283.458 476.644 281.498 479.304C279.538 481.88 277.144 484.092 274.4 485.814C268.38 489.818 262.808 494.48 257.796 499.688C254.156 503.608 251.384 508.256 249.676 513.324C248.542 516.88 249.592 522.662 246.708 525.294C244.398 527.128 241.22 527.408 238.616 526.022C234.892 523.922 235.508 518.714 235.55 515.032C235.704 508.536 236.782 502.096 238.756 495.922V495.908Z" fill="#6FADFF"/>
<path d="M238.756 495.908C241.276 487.788 245.196 479.892 251.37 474.026C257.53 468.16 266.224 464.548 274.596 465.78C277.634 466.228 280.84 467.474 282.366 470.148C283.794 473.116 283.458 476.644 281.498 479.304C279.538 481.88 277.144 484.092 274.4 485.814C268.38 489.818 262.808 494.48 257.796 499.688C254.156 503.608 251.384 508.256 249.676 513.324C248.542 516.88 249.592 522.662 246.708 525.294C244.398 527.128 241.22 527.408 238.616 526.022C234.892 523.922 235.508 518.714 235.55 515.032C235.704 508.536 236.782 502.096 238.756 495.922V495.908Z" fill="url(#paint21_linear_46_470)"/>
<path d="M239.974 507.234C239.638 505.876 239.428 504.504 239.33 503.104C239.33 500.528 240.478 498.092 242.48 496.482C243.432 495.782 244.426 495.152 245.448 494.564C247.66 493.388 249.186 491.232 249.536 488.74C249.536 487.802 249.326 486.864 249.368 485.954C249.34 484.988 249.9 484.12 250.768 483.714C251.846 483.574 252.91 484.078 253.47 485.016C254.646 486.668 255.304 488.628 255.36 490.658C255.388 492.674 255.094 494.676 254.464 496.594C253.624 500.08 251.566 503.146 248.654 505.26C247.38 505.904 246.162 506.632 244.972 507.416C243.348 508.956 242.172 510.902 241.542 513.044C241.458 513.268 240.436 522.256 240.254 522.396C238.98 523.376 240.394 512.246 240.436 511.812C240.464 510.272 240.31 508.732 239.974 507.234Z" fill="url(#paint22_linear_46_470)"/>
<path d="M216.524 514.444C214.284 512.4 211.694 510.776 208.894 509.642C203.406 506.954 198.1 503.916 193.004 500.556C190.624 498.988 188.146 497.126 187.32 494.396C186.494 491.666 187.404 489.048 188.286 486.486C189.168 483.924 190.652 480.466 193.55 479.878C195.118 479.696 196.714 480.004 198.114 480.746C207.018 484.596 214.354 491.344 218.904 499.912C220.01 502.04 221.004 504.224 221.872 506.45C223.93 511.728 225.652 517.132 226.996 522.634C227.948 526.554 225.008 533.652 221.732 527.8C219.184 523.46 220.276 518.406 216.538 514.458L216.524 514.444Z" fill="#6FADFF"/>
<path d="M216.524 514.444C214.284 512.4 211.694 510.776 208.894 509.642C203.406 506.954 198.1 503.916 193.004 500.556C190.624 498.988 188.146 497.126 187.32 494.396C186.494 491.666 187.404 489.048 188.286 486.486C189.168 483.924 190.652 480.466 193.55 479.878C195.118 479.696 196.714 480.004 198.114 480.746C207.018 484.596 214.354 491.344 218.904 499.912C220.01 502.04 221.004 504.224 221.872 506.45C223.93 511.728 225.652 517.132 226.996 522.634C227.948 526.554 225.008 533.652 221.732 527.8C219.184 523.46 220.276 518.406 216.538 514.458L216.524 514.444Z" fill="url(#paint23_linear_46_470)"/>
<path d="M220.528 507.5C220.528 506.254 220.402 505.008 220.178 503.776C219.618 501.536 218.078 499.66 215.978 498.694C215.012 498.302 214.018 497.966 213.01 497.686C210.812 497.168 209.006 495.614 208.166 493.528C207.928 492.716 207.928 491.848 207.676 491.05C207.494 490.21 206.822 489.566 205.968 489.412C205.016 489.412 204.288 490.252 203.924 491.148C203.252 492.842 203.112 494.69 203.518 496.468C203.924 498.232 204.624 499.912 205.604 501.438C207.102 504.28 209.58 506.506 212.576 507.696C213.822 507.976 215.054 508.34 216.258 508.76C218.022 509.726 219.478 511.168 220.486 512.904C220.598 513.086 225.092 524.79 225.302 524.79C226.618 525.364 221.326 511.938 221.186 511.56C220.808 510.244 220.584 508.872 220.542 507.5H220.528Z" fill="url(#paint24_linear_46_470)"/>
<path d="M222.894 513.632C220.332 509.866 218.12 505.89 216.258 501.746C213.304 493.878 214.06 485.1 218.344 477.862C220.514 474.656 222.838 471.562 225.344 468.608C230.23 462.196 233.8 453.754 231.28 446.152C230.3 443.184 228.522 440.678 227.612 437.766C226.702 434.854 226.926 431.2 229.334 429.324C232.078 427.196 236.138 428.4 239.078 430.276C244.552 433.972 248.794 439.222 251.244 445.368C253.666 451.486 255.038 457.968 255.304 464.548C256.032 476.112 254.408 488.432 247.366 497.658C244.538 501.34 240.94 504.448 238.546 508.424C234.822 514.668 234.472 522.284 234.458 529.55C234.528 530.348 234.374 531.146 234.024 531.874C231.238 536.326 230.02 528.472 229.572 527.072C228.256 522.424 225.386 517.748 222.908 513.646L222.894 513.632Z" fill="#6FADFF"/>
<path d="M222.894 513.632C220.332 509.866 218.12 505.89 216.258 501.746C213.304 493.878 214.06 485.1 218.344 477.862C220.514 474.656 222.838 471.562 225.344 468.608C230.23 462.196 233.8 453.754 231.28 446.152C230.3 443.184 228.522 440.678 227.612 437.766C226.702 434.854 226.926 431.2 229.334 429.324C232.078 427.196 236.138 428.4 239.078 430.276C244.552 433.972 248.794 439.222 251.244 445.368C253.666 451.486 255.038 457.968 255.304 464.548C256.032 476.112 254.408 488.432 247.366 497.658C244.538 501.34 240.94 504.448 238.546 508.424C234.822 514.668 234.472 522.284 234.458 529.55C234.528 530.348 234.374 531.146 234.024 531.874C231.238 536.326 230.02 528.472 229.572 527.072C228.256 522.424 225.386 517.748 222.908 513.646L222.894 513.632Z" fill="url(#paint25_linear_46_470)"/>
<path d="M227.808 513.38C227.024 512.218 226.352 511 225.778 509.726C224.868 507.318 225.106 504.63 226.422 502.418C227.08 501.424 227.808 500.486 228.578 499.576C230.062 497.616 231.168 495.026 230.37 492.702C230.076 491.806 229.53 491.022 229.236 490.126C228.886 489.23 229.096 488.222 229.768 487.536C230.72 487.032 231.896 487.13 232.736 487.816C234.416 488.95 235.718 490.574 236.46 492.45C237.216 494.34 237.636 496.356 237.706 498.386C238.126 501.956 237.258 505.54 235.27 508.536C234.304 509.586 233.408 510.678 232.568 511.84C231.574 513.842 231.154 516.068 231.322 518.308C231.336 518.56 231.294 518.798 231.182 519.022C230.314 520.408 229.95 517.986 229.824 517.538C229.334 516.068 228.648 514.668 227.794 513.38H227.808Z" fill="url(#paint26_linear_46_470)"/>
<path d="M213.458 522.774H253.008L243.67 552.986H221.564L213.458 522.774Z" fill="#6FADFF"/>
<path d="M213.458 522.774H253.008L243.67 552.986H221.564L213.458 522.774Z" fill="url(#paint27_linear_46_470)"/>
<path d="M254.422 522.83H211.582V531.286H254.422V522.83Z" fill="#6FADFF"/>
<path d="M254.422 522.83H211.582V531.286H254.422V522.83Z" fill="url(#paint28_linear_46_470)"/>
<defs>
<linearGradient id="paint0_linear_46_470" x1="331.814" y1="275.31" x2="442.47" y2="230.748" gradientUnits="userSpaceOnUse">
<stop offset="0.02" stop-color="white" stop-opacity="0"/>
<stop offset="0.32" stop-color="white" stop-opacity="0.39"/>
<stop offset="0.68" stop-color="white" stop-opacity="0.68"/>
<stop offset="1" stop-color="white"/>
</linearGradient>
<linearGradient id="paint1_linear_46_470" x1="412.076" y1="235.564" x2="476.882" y2="216.608" gradientUnits="userSpaceOnUse">
<stop offset="0.02" stop-color="white" stop-opacity="0"/>
<stop offset="0.32" stop-color="white" stop-opacity="0.39"/>
<stop offset="0.68" stop-color="white" stop-opacity="0.68"/>
<stop offset="1" stop-color="white"/>
</linearGradient>
<linearGradient id="paint2_linear_46_470" x1="213.612" y1="178.374" x2="222.838" y2="309.4" gradientUnits="userSpaceOnUse">
<stop offset="0.02" stop-color="white" stop-opacity="0"/>
<stop offset="0.32" stop-color="white" stop-opacity="0.39"/>
<stop offset="0.68" stop-color="white" stop-opacity="0.68"/>
<stop offset="1" stop-color="white"/>
</linearGradient>
<linearGradient id="paint3_linear_46_470" x1="229.768" y1="177.24" x2="238.98" y2="308.266" gradientUnits="userSpaceOnUse">
<stop offset="0.02" stop-color="white" stop-opacity="0"/>
<stop offset="0.32" stop-color="white" stop-opacity="0.39"/>
<stop offset="0.67" stop-color="white" stop-opacity="0.68"/>
<stop offset="1" stop-color="white"/>
</linearGradient>
<linearGradient id="paint4_linear_46_470" x1="247.31" y1="175.994" x2="256.536" y2="307.02" gradientUnits="userSpaceOnUse">
<stop offset="0.02" stop-color="white" stop-opacity="0"/>
<stop offset="0.32" stop-color="white" stop-opacity="0.39"/>
<stop offset="0.68" stop-color="white" stop-opacity="0.68"/>
<stop offset="1" stop-color="white"/>
</linearGradient>
<linearGradient id="paint5_linear_46_470" x1="264.614" y1="174.776" x2="273.826" y2="305.816" gradientUnits="userSpaceOnUse">
<stop offset="0.02" stop-color="white" stop-opacity="0"/>
<stop offset="0.32" stop-color="white" stop-opacity="0.39"/>
<stop offset="0.68" stop-color="white" stop-opacity="0.68"/>
<stop offset="1" stop-color="white"/>
</linearGradient>
<linearGradient id="paint6_linear_46_470" x1="559.426" y1="601.902" x2="565.194" y2="272.244" gradientUnits="userSpaceOnUse">
<stop stop-color="#231F20" stop-opacity="0"/>
<stop offset="1" stop-color="#231F20"/>
</linearGradient>
<linearGradient id="paint7_linear_46_470" x1="447.706" y1="371.126" x2="447.706" y2="459.242" gradientUnits="userSpaceOnUse">
<stop stop-color="#231F20" stop-opacity="0"/>
<stop offset="1" stop-color="#231F20"/>
</linearGradient>
<linearGradient id="paint8_linear_46_470" x1="294.028" y1="513.814" x2="289.408" y2="356.286" gradientUnits="userSpaceOnUse">
<stop stop-color="#231F20" stop-opacity="0"/>
<stop offset="1" stop-color="#231F20"/>
</linearGradient>
<linearGradient id="paint9_linear_46_470" x1="361.62" y1="511.84" x2="357.014" y2="354.312" gradientUnits="userSpaceOnUse">
<stop stop-color="#231F20" stop-opacity="0"/>
<stop offset="1" stop-color="#231F20"/>
</linearGradient>
<linearGradient id="paint10_linear_46_470" x1="616.322" y1="603.092" x2="622.076" y2="273.434" gradientUnits="userSpaceOnUse">
<stop stop-color="#231F20" stop-opacity="0"/>
<stop offset="1" stop-color="#231F20"/>
</linearGradient>
<linearGradient id="paint11_linear_46_470" x1="647.64" y1="498.134" x2="672.224" y2="468.93" gradientUnits="userSpaceOnUse">
<stop stop-color="#231F20" stop-opacity="0"/>
<stop offset="1" stop-color="#231F20"/>
</linearGradient>
<linearGradient id="paint12_linear_46_470" x1="587.37" y1="501.97" x2="633.08" y2="462.014" gradientUnits="userSpaceOnUse">
<stop stop-color="#231F20" stop-opacity="0"/>
<stop offset="1" stop-color="#231F20"/>
</linearGradient>
<linearGradient id="paint13_linear_46_470" x1="619.752" y1="391.3" x2="681.618" y2="500.038" gradientUnits="userSpaceOnUse">
<stop stop-color="#231F20" stop-opacity="0"/>
<stop offset="1" stop-color="#231F20"/>
</linearGradient>
<linearGradient id="paint14_linear_46_470" x1="462.616" y1="477.582" x2="582.946" y2="477.582" gradientUnits="userSpaceOnUse">
<stop stop-color="#231F20" stop-opacity="0"/>
<stop offset="1" stop-color="#231F20"/>
</linearGradient>
<linearGradient id="paint15_linear_46_470" x1="600.376" y1="419.594" x2="692.608" y2="243.866" gradientUnits="userSpaceOnUse">
<stop stop-color="#231F20" stop-opacity="0"/>
<stop offset="1" stop-color="#231F20"/>
</linearGradient>
<linearGradient id="paint16_linear_46_470" x1="74.774" y1="554.568" x2="96.684" y2="360.92" gradientUnits="userSpaceOnUse">
<stop stop-color="#231F20" stop-opacity="0"/>
<stop offset="1" stop-color="#231F20"/>
</linearGradient>
<linearGradient id="paint17_linear_46_470" x1="94.9199" y1="314.076" x2="-0.938049" y2="369.6" gradientUnits="userSpaceOnUse">
<stop stop-color="#231F20" stop-opacity="0"/>
<stop offset="1" stop-color="#231F20"/>
</linearGradient>
<linearGradient id="paint18_linear_46_470" x1="92.582" y1="390.936" x2="38.794" y2="266.966" gradientUnits="userSpaceOnUse">
<stop stop-color="#231F20" stop-opacity="0"/>
<stop offset="1" stop-color="#231F20"/>
</linearGradient>
<linearGradient id="paint19_linear_46_470" x1="100.142" y1="278.908" x2="102.634" y2="243.362" gradientUnits="userSpaceOnUse">
<stop stop-color="#231F20" stop-opacity="0"/>
<stop offset="1" stop-color="#231F20"/>
</linearGradient>
<linearGradient id="paint20_linear_46_470" x1="152.852" y1="303.422" x2="128.254" y2="371.826" gradientUnits="userSpaceOnUse">
<stop stop-color="#231F20" stop-opacity="0"/>
<stop offset="1" stop-color="#231F20"/>
</linearGradient>
<linearGradient id="paint21_linear_46_470" x1="269.122" y1="490.98" x2="229.95" y2="505.582" gradientUnits="userSpaceOnUse">
<stop stop-color="#231F20" stop-opacity="0"/>
<stop offset="1" stop-color="#231F20"/>
</linearGradient>
<linearGradient id="paint22_linear_46_470" x1="250.202" y1="491.766" x2="237.686" y2="520.092" gradientUnits="userSpaceOnUse">
<stop stop-color="#231F20" stop-opacity="0"/>
<stop offset="1" stop-color="#231F20"/>
</linearGradient>
<linearGradient id="paint23_linear_46_470" x1="200.732" y1="475.608" x2="213.024" y2="538.804" gradientUnits="userSpaceOnUse">
<stop stop-color="#231F20" stop-opacity="0"/>
<stop offset="1" stop-color="#231F20"/>
</linearGradient>
<linearGradient id="paint24_linear_46_470" x1="194.946" y1="451.844" x2="214.148" y2="476.211" gradientUnits="userSpaceOnUse">
<stop stop-color="#231F20" stop-opacity="0"/>
<stop offset="1" stop-color="#231F20"/>
</linearGradient>
<linearGradient id="paint25_linear_46_470" x1="236.88" y1="449.456" x2="232.008" y2="530.138" gradientUnits="userSpaceOnUse">
<stop stop-color="#231F20" stop-opacity="0"/>
<stop offset="1" stop-color="#231F20"/>
</linearGradient>
<linearGradient id="paint26_linear_46_470" x1="232.106" y1="493.724" x2="230.622" y2="518.434" gradientUnits="userSpaceOnUse">
<stop stop-color="#231F20" stop-opacity="0"/>
<stop offset="1" stop-color="#231F20"/>
</linearGradient>
<linearGradient id="paint27_linear_46_470" x1="213.458" y1="537.894" x2="253.008" y2="537.894" gradientUnits="userSpaceOnUse">
<stop stop-color="#231F20" stop-opacity="0"/>
<stop offset="1" stop-color="#231F20"/>
</linearGradient>
<linearGradient id="paint28_linear_46_470" x1="232.358" y1="524.034" x2="235.046" y2="536.522" gradientUnits="userSpaceOnUse">
<stop stop-color="#231F20" stop-opacity="0"/>
<stop offset="1" stop-color="#231F20"/>
</linearGradient>
</defs>
</svg>
